<?xml version="1.0" standalone="no"?>
<!DOCTYPE svg PUBLIC "-//W3C//DTD SVG 20010904//EN"
 "http://www.w3.org/TR/2001/REC-SVG-20010904/DTD/svg10.dtd">
<svg version="1.0" xmlns="http://www.w3.org/2000/svg"
 width="512.000000pt" height="512.000000pt" viewBox="0 0 512.000000 512.000000"
 preserveAspectRatio="xMidYMid meet">
<metadata>
Created by potrace 1.11, written by Peter Selinger 2001-2013
</metadata>
<g transform="translate(0.000000,512.000000) scale(0.100000,-0.100000)"
fill="#000000" stroke="none">
<path d="M2198 5104 c-154 -37 -297 -153 -368 -299 -49 -99 -59 -172 -60 -443
-1 -218 1 -247 18 -285 42 -94 75 -104 330 -106 191 -1 206 -2 243 -23 106
-59 112 -199 12 -275 l-36 -28 -931 -5 c-857 -5 -935 -6 -976 -23 -198 -77
-327 -216 -375 -402 -22 -87 -21 -674 1 -761 24 -89 81 -190 146 -255 65 -65
121 -101 217 -138 l66 -26 640 -3 c352 -2 642 -5 644 -8 3 -3 6 -352 6 -777 1
-713 2 -777 19 -831 62 -205 217 -355 415 -400 96 -22 657 -23 742 -1 95 25
179 69 253 135 50 44 117 148 145 223 25 70 26 78 29 357 3 321 2 325 -71 384
l-39 31 -262 5 c-281 5 -289 7 -338 63 -61 69 -38 193 47 244 28 17 79 18 980
23 1020 6 959 3 1079 55 140 60 276 239 305 400 18 95 14 726 -5 804 -44 190
-200 358 -379 410 -77 23 -144 25 -727 25 l-588 0 0 731 c0 805 1 786 -63 915
-66 134 -228 259 -375 289 -81 17 -672 13 -744 -5z"/>
</g>
</svg>
